# xmcd CD database file
#
# Track frame offsets:
#	182
#	48475
#	78227
#	109215
#	137792
#	162442
#	221690
#
# Disc length: 3070 seconds
#
# Revision: 1
# Processed by: cddbd v1.5.2PL0 Copyright (c) Steve Scherf et al.
# Submitted via: CDex 1.51
#
DISCID=600bfc07
DTITLE=Duke Jordan - Tivoli Two
DYEAR=1995
DGENRE=Jazz
TTITLE0=No Problem
TTITLE1=How Deep Is The Ocean
TTITLE2=All The Things You Are
TTITLE3=Jealous Blues
TTITLE4=I Cover The Waterfront
TTITLE5=A Night In Tunisia 
TTITLE6=Jordu
EXTD=YEAR: 1995
EXTT0=
EXTT1=
EXTT2=
EXTT3=
EXTT4=
EXTT5=
EXTT6=
PLAYORDER=
